# xmcd CD database file
#
# Track frame offsets:
#	150
#	18656
#	43361
#	58647
#	71286
#	84670
#	100070
#	116278
#	127296
#	141040
#	158867
#	185063
#	208264
#
# Disc length: 4440 seconds
#
# Revision: 0
# Processed by: cddbd v1.5.1PL0 Copyright (c) Steve Scherf et al.
# Submitted via: CDex 1.51
#
DISCID=c111560d
DTITLE=Paul Kelly and The Stormwater Boys - Foggy Highway
DYEAR=2005
DGENRE=Country
TTITLE0=Stumbling Block
TTITLE1=Rally Round The Drum
TTITLE2=Ghost Town
TTITLE3=Song Of The Old Rake
TTITLE4=Don't Stand So Close To The Window
TTITLE5=Passed Over
TTITLE6=They Thought I Was Asleep
TTITLE7=You're Learning (with Kasey Chambers)
TTITLE8=Foggy Highway
TTITLE9=Down To My Soul
TTITLE10=Cities Of Texas
TTITLE11=Meet Me In The Middle
TTITLE12=Data Track
EXTD=YEAR: 2005
EXTT0=
EXTT1=
EXTT2=
EXTT3=
EXTT4=
EXTT5=
EXTT6=
EXTT7=
EXTT8=
EXTT9=
EXTT10=
EXTT11=
EXTT12=
PLAYORDER=
